{"title":"Ride.Along.2.2016.1080p.BluRay.x264.DTS-RiSHU","uid":14348903,"size":2871042623,"categoryP":"video","categoryS":"hd___movies","magnet":"?xt=urn:btih:aa5632f7b495c9038ce54b418a9b30ace2e4f308&amp;dn=Ride.Along.2.2016.1080p.BluRay.x264.DTS-RiSHU&amp;tr=udp%3A%2F%2Ftracker.leechers-paradise.org%3A6969&amp;tr=udp%3A%2F%2Fzer0day.ch%3A1337&amp;tr=udp%3A%2F%2Fopen.demonii.com%3A1337&amp;tr=udp%3A%2F%2Ftracker.coppersurfer.tk%3A6969&amp;tr=udp%3A%2F%2Fexodus.desync.com%3A6969","seeders":2,"leechers":0,"uploader":"TheDeb","files":1,"time":1461009319,"description":"\nhttp://www.imdb.com/title/tt2869728/\r\n\r\n\r\n\r\nFormat                                   : Matroska\r\nFormat version                           : Version 2\r\nFile size                                : 2.67 GiB\r\nDuration                                 : 1h 41mn\r\nOverall bit rate                         : 3 771 Kbps\r\nEncoded date                             : UTC 2016-04-17 03:01:20\r\nWriting application                      : mkvmerge v8.5.2 ('Crosses') 32bit\r\nWriting library                          : libebml v1.3.3 + libmatroska v1.4.4\r\n\r\nVideo\r\nID                                       : 1\r\nFormat                                   : AVC\r\nFormat/Info                              : Advanced Video Codec\r\nFormat profile                           :   \r\nFormat settings, CABAC                   : Yes\r\nFormat settings, ReFrames                : 4 frames\r\nCodec ID                                 : V_MPEG4/ISO/AVC\r\nDuration                                 : 1h 41mn\r\nBit rate                                 : 3 000 Kbps\r\nWidth                                    : 1 920 pixels\r\nHeight                                   : 800 pixels\r\nDisplay aspect ratio                     : 2.40:1\r\nFrame rate mode                          : Constant\r\nFrame rate                               : 23.976 (24000/1001) fps\r\nColor space                              : YUV\r\nChroma subsampling                       : 4:2:0\r\nBit depth                                : 8 bits\r\nScan type                                : Progressive\r\nBits/(Pixel*Frame)                       : 0.081\r\nStream size                              : 2.13 GiB (80%)\r\nTitle                                    : RiSHU\r\nWriting library                          : x264 core 148 r2638 7599210\r\nDefault                                  : Yes\r\nForced                                   : No\r\n\r\nAudio\r\nID                                       : 2\r\nFormat                                   : DTS\r\nFormat/Info                              : Digital Theater Systems\r\nMode                                     : 16\r\nFormat settings, Endianness              : Big\r\nCodec ID                                 : A_DTS\r\nDuration                                 : 1h 41mn\r\nBit rate mode                            : Constant\r\nBit rate                                 : 768 Kbps\r\nChannel(s)                               : 6 channels\r\nChannel positions                        : Front: L C R, Side: L R, LFE\r\nSampling rate                            : 48.0 KHz\r\nFrame rate                               : 93.750 fps (512 spf)\r\nBit depth                                : 24 bits\r\nCompression mode                         : Lossy\r\nStream size                              : 558 MiB (20%)\r\nTitle                                    : RiSHU\r\nLanguage                                 : English\r\nDefault                                  : Yes\r\nForced                                   : No\r\n\r\n\r\nSCREENS:\r\n\r\n \nhttps://extraimago.com/images/2016/04/17/3.png \nhttps://extraimago.com/images/2016/04/17/6.png \nhttps://extraimago.com/images/2016/04/17/1.png \nhttps://extraimago.com/images/2016/04/17/5.png \nhttps://extraimago.com/images/2016/04/17/2.png \nhttps://extraimago.com/images/2016/04/17/4.png","torrent":{"xt":"urn:btih:aa5632f7b495c9038ce54b418a9b30ace2e4f308","amp;dn":"Ride.Along.2.2016.1080p.BluRay.x264.DTS-RiSHU","amp;tr":["udp%3A%2F%2Ftracker.leechers-paradise.org%3A6969","udp%3A%2F%2Fzer0day.ch%3A1337","udp%3A%2F%2Fopen.demonii.com%3A1337","udp%3A%2F%2Ftracker.coppersurfer.tk%3A6969","udp%3A%2F%2Fexodus.desync.com%3A6969"],"infoHash":"aa5632f7b495c9038ce54b418a9b30ace2e4f308","infoHashBuffer":{"type":"Buffer","data":[170,86,50,247,180,149,201,3,140,229,75,65,138,155,48,172,226,228,243,8]},"announce":[],"urlList":[]}}